#tb 0: 1/25
#media_type 0: video
#codec_id 0: rawvideo
#dimensions 0: 176x144
#sar 0: 0/1
0,          0,          0,        1,    38016, 0x0bd22424
0,          1,          1,        1,    38016, 0xc45d1947
0,          2,          2,        1,    38016, 0x9d3d1218
0,          3,          3,        1,    38016, 0x79b71e03
0,          4,          4,        1,    38016, 0xd11e4a14
0,          5,          5,        1,    38016, 0x44c66b22
0,          6,          6,        1,    38016, 0xb9cc7acf
0,          7,          7,        1,    38016, 0x8ccd92a1
0,          8,          8,        1,    38016, 0x4a76aec4
0,          9,          9,        1,    38016, 0x6e2fc27e
0,         10,         10,        1,    38016, 0x400ea1fb
0,         11,         11,        1,    38016, 0xd1e2b7c4
0,         12,         12,        1,    38016, 0xb45eb08d
0,         13,         13,        1,    38016, 0x15079991
0,         14,         14,        1,    38016, 0x0fc97188
0,         15,         15,        1,    38016, 0xf9fc81af
0,         16,         16,        1,    38016, 0x020f992d
